<svg xmlns="http://www.w3.org/2000/svg" width="256" height="256"><defs><linearGradient id="a" x1="0" x2="1" y1="0" y2="1"><stop offset="0%" stop-color="#0f3b4a"/><stop offset="100%" stop-color="#163b3c"/></linearGradient></defs><path fill="url(#a)" d="M128 10a10 10 0 0 1 8.66 5l87.32 64a10 10 0 0 1 3.74 7.87v78.26a10 10 0 0 1-3.74 7.87l-87.32 64a10 10 0 0 1-17.32 0l-87.32-64a10 10 0 0 1-3.74-7.87V86.87A10 10 0 0 1 32.02 79l87.32-64a10 10 0 0 1 8.66-5z"/><text x="50%" y="55%" fill="#a6ff00" dominant-baseline="middle" font-family="Arial, Helvetica, sans-serif" font-size="90" font-weight="bold" text-anchor="middle">FL</text></svg>